<svg xmlns="http://www.w3.org/2000/svg" viewBox="0 0 54 68.75"><defs><style>.cls-1{fill:#c7c7c7;}</style></defs><g id="Layer_2" data-name="Layer 2"><g id="Layer_2-2" data-name="Layer 2"><path class="cls-1" d="M14.75,29.13H7V15.86S8.48,0,26.55,0,45.72,15.86,45.72,15.86V29.13H38.35V16.22S36.51,7,26.55,7s-11.8,9.21-11.8,9.21Z"/><path class="cls-1" d="M53.84,30.61C53.47,29.5,52,29.13,52,29.13H1.47C.37,29.13,0,30.61,0,30.61S.37,66.74.37,67.48s1.1,1.11,1.1,1.11,49.78.36,50.89,0a2.53,2.53,0,0,0,1.48-1.48S54.2,31.71,53.84,30.61Zm-33.19,28,2.61-11.51a5.16,5.16,0,1,1,6.26.24l2.56,11.27Z"/></g></g></svg>