<svg xmlns="http://www.w3.org/2000/svg" viewBox="0 0 175 224.98"><g id="Layer_2" data-name="Layer 2"><g id="Layer_2-2" data-name="Layer 2"><path d="M167.52,90.67c-8.86-8.56-8.86-8.81-10.84-14.32-1-2.78-1.07-7.17-.86-11.06a35.23,35.23,0,0,1,2.76-12c2.06-4.81,4.39-13.33-1.13-19.9-6.76-8.06-18.63-5.92-22.41-5a15,15,0,0,1-3.4.45C126,29,110.88,28,105.58,15.19,99-.68,86.23.09,86.23.09c-9-1.2-15,9.92-17.21,15a15.8,15.8,0,0,1-3.91,5.38c-5,4.5-16.26,12.1-31.14,7.89-14.45-4.09-18.72,8.14-20,15.73a15.88,15.88,0,0,0,1.16,9c2.11,4.77,5.2,13.7,3.34,21.7s-8.82,15-13,18.66a15.53,15.53,0,0,0-5.16,9.19,22.2,22.2,0,0,0,0,7.38,15.79,15.79,0,0,0,13.86,12.68c10,1.24,11.85,4.22,14,6.28,2.59,2.47,9.75,14.17,10.07,15.87a61,61,0,0,1,.47,9,15.88,15.88,0,0,0,2.93,9.38A50.84,50.84,0,0,0,46,168.48c3.59,3.82,9.83,3.51,14.08,2.72a15.81,15.81,0,0,0,6.78-3.08c4-3.09,12.55-8.83,21.33-8.55,8.46.28,15.76,5.16,19.33,8A15.59,15.59,0,0,0,118.24,171a22.88,22.88,0,0,0,10.18-3.32c7.84-4.64,8.28-14.08,8-18.51a16,16,0,0,1,.78-6.11c2-5.82,7.39-16.71,20.25-19.51,17.81-3.87,17.42-13.93,17.42-13.93S176.55,99.4,167.52,90.67ZM86.85,151.06A58.45,58.45,0,1,1,145.3,92.61,58.45,58.45,0,0,1,86.85,151.06Z"/><path d="M87.87,45.67a46.65,46.65,0,1,0,46.65,46.65A46.64,46.64,0,0,0,87.87,45.67Zm22,40.12-29.15,22a5.49,5.49,0,0,1-7.84-1.27L64.05,93.61a5.5,5.5,0,1,1,9-6.24l2.37,3.44a5.51,5.51,0,0,0,7.84,1.27L103.3,77a5.49,5.49,0,0,1,7.7,1.08h0A5.49,5.49,0,0,1,109.92,85.79Z"/><path d="M32.16,173.77S53.33,198,79.39,172c.66,0-17.13,39.69-22.49,51.62a1.73,1.73,0,0,1-3.11.08c-2.68-5.17-8.34-14.87-14.14-17.12s-14.72-.42-19.19.75a1.37,1.37,0,0,1-1.62-1.87Z"/><path d="M140.29,174.15s-21.16,24.26-47.22-1.8c-.66,0,17.13,39.69,22.49,51.61a1.72,1.72,0,0,0,3.11.08c2.68-5.16,8.34-14.87,14.14-17.11s14.72-.42,19.19.75a1.38,1.38,0,0,0,1.62-1.88Z"/></g></g></svg>