<svg height='300px' width='300px'  fill="#ff0000" xmlns="http://www.w3.org/2000/svg" xmlns:xlink="http://www.w3.org/1999/xlink" version="1.1" x="0px" y="0px" viewBox="0 0 67 67" enable-background="new 0 0 67 67" xml:space="preserve"><g><path d="M3.38589,20.89392c-1.04138,0-1.88556,0.84424-1.88556,1.8855v20.42871c0,1.04126,0.84418,1.8855,1.88556,1.8855h13.5954   V20.89392H3.38589z M8.40213,37.32947c0,0.55273-0.44775,1-1,1s-1-0.44727-1-1v-8.6709c0-0.55273,0.44775-1,1-1s1,0.44727,1,1   V37.32947z"></path><path d="M65.49966,32.99011c0,1.83984-1.48999,3.31982-3.32001,3.31982H18.97964v-6.63989h26.48999v-5.63013   c0-1.28979,1.04004-2.33984,2.32001-2.33984c1.27002,0,2.33002,1.02002,2.33002,2.33984v2.3501   c0-1.28003,1.03998-2.31982,2.32001-2.31982c1.28998,0,2.32996,1.02979,2.32996,2.31982v-4.03003   c0-1.28003,1.04004-2.32007,2.32001-2.32007c1.27002,0,2.33002,1.02002,2.33002,2.32007v7.31006h2.76001   C64.01962,29.67004,65.49966,31.15002,65.49966,32.99011z"></path><g><path d="M27.01962,20.33997v7.33008h-1.5v-7.02002L20.75967,15.88c-0.14001-0.13989-0.22003-0.32983-0.22003-0.53003v-3.6499    c-1.67999-0.3501-2.96002-1.8501-2.96002-3.64014c0-2.04004,1.67004-3.69995,3.71002-3.69995s3.70001,1.65991,3.70001,3.69995    c0,1.79004-1.27002,3.28003-2.95001,3.64014v3.33984l4.76001,4.77002C26.93967,19.95007,27.01962,20.14001,27.01962,20.33997z"></path><path d="M27.01962,38.30994v8.3501c0,0.19995-0.07996,0.39014-0.21997,0.53003l-4.76001,4.77002v3.34009    c1.67999,0.35986,2.95001,1.84985,2.95001,3.63989c0,2.04004-1.66003,3.69995-3.70001,3.69995s-3.71002-1.65991-3.71002-3.69995    c0-1.79004,1.28003-3.29004,2.96002-3.63989v-3.65015c0-0.19995,0.08002-0.38989,0.22003-0.53003l4.75995-4.77002v-8.04004    H27.01962z"></path><path d="M35.91965,52.75012c0,2.03979-1.65997,3.69995-3.71002,3.69995c-2.03998,0-3.69995-1.66016-3.69995-3.69995    c0-1.78003,1.26996-3.27002,2.94995-3.63013V38.30994h1.5V49.12C34.64963,49.47009,35.91965,50.96008,35.91965,52.75012z"></path><path d="M35.91965,14.25012c0,1.78979-1.27002,3.28003-2.96002,3.62988v9.79004h-1.5V17.88    c-1.67999-0.36011-2.94995-1.84985-2.94995-3.62988c0-2.04004,1.65997-3.69995,3.69995-3.69995    C34.25967,10.55017,35.91965,12.21008,35.91965,14.25012z"></path><path d="M45.85965,58.94006c0,2.04004-1.65997,3.69995-3.71002,3.69995c-2.03998,0-3.69995-1.65991-3.69995-3.69995    c0-1.79004,1.26996-3.28003,2.94995-3.63989v-4.40015L36.63968,46.13c-0.14001-0.13989-0.22003-0.32983-0.22003-0.53003v-7.29004    h1.5v6.97998l4.76001,4.77002c0.14001,0.14014,0.21997,0.33008,0.21997,0.53003v4.71021    C44.58963,55.65002,45.85965,57.15002,45.85965,58.94006z"></path><path d="M45.85965,8.05994c0,1.79004-1.27002,3.29004-2.96002,3.64014v4.71997c0,0.18994-0.07996,0.38013-0.21997,0.53003    l-4.76001,4.76001v5.95996h-1.5v-6.27002c0-0.19995,0.08002-0.38989,0.22003-0.53003l4.75995-4.77002v-4.3999    c-1.67999-0.36011-2.94995-1.8501-2.94995-3.64014c0-2.04004,1.65997-3.69995,3.69995-3.69995    C44.19968,4.35999,45.85965,6.0199,45.85965,8.05994z"></path></g></g></svg>